# MagicaVoxel @ Ephtracy

# material
mtllib cable.mtl
usemtl palette

# normals
vn -1 0 0
vn 1 0 0
vn 0 0 1
vn 0 0 -1
vn 0 -1 0
vn 0 1 0

# texcoords
vt 0.564453 0.5
vt 0.587891 0.5
vt 0.681641 0.5

# verts
v -4 0 4
v -4 0 -4
v -4 1 3
v -4 1 -3
v -4 7 3
v -4 7 -3
v -4 8 4
v -4 8 -4
v -3 1 3
v -3 1 -3
v -3 2 2
v -3 2 -2
v -3 6 2
v -3 6 -2
v -3 7 3
v -3 7 -3
v 3 0 3
v 3 0 -3
v 3 1 4
v 3 1 3
v 3 1 -3
v 3 1 -4
v 3 7 4
v 3 7 3
v 3 7 -3
v 3 7 -4
v 3 8 3
v 3 8 -3
v -3 0 3
v -3 0 -3
v -3 1 4
v -3 1 3
v -3 1 -3
v -3 1 -4
v -3 7 4
v -3 7 3
v -3 7 -3
v -3 7 -4
v -3 8 3
v -3 8 -3
v 3 1 3
v 3 1 -3
v 3 2 2
v 3 2 -2
v 3 6 2
v 3 6 -2
v 3 7 3
v 3 7 -3
v 4 0 4
v 4 0 -4
v 4 1 3
v 4 1 -3
v 4 7 3
v 4 7 -3
v 4 8 4
v 4 8 -4
v -4 0 4
v -4 8 4
v -3 1 4
v -3 7 4
v 3 1 4
v 3 7 4
v 4 0 4
v 4 8 4
v -3 1 3
v -3 7 3
v -2 2 3
v -2 6 3
v 2 2 3
v 2 6 3
v 3 1 3
v 3 7 3
v -4 1 -3
v -4 7 -3
v -3 0 -3
v -3 1 -3
v -3 7 -3
v -3 8 -3
v 3 0 -3
v 3 1 -3
v 3 7 -3
v 3 8 -3
v 4 1 -3
v 4 7 -3
v -4 1 3
v -4 7 3
v -3 0 3
v -3 1 3
v -3 7 3
v -3 8 3
v 3 0 3
v 3 1 3
v 3 7 3
v 3 8 3
v 4 1 3
v 4 7 3
v -3 1 -3
v -3 7 -3
v -2 2 -3
v -2 6 -3
v 2 2 -3
v 2 6 -3
v 3 1 -3
v 3 7 -3
v -4 0 -4
v -4 8 -4
v -3 1 -4
v -3 7 -4
v 3 1 -4
v 3 7 -4
v 4 0 -4
v 4 8 -4
v -4 0 4
v 4 0 4
v -3 0 3
v 3 0 3
v -3 0 -3
v 3 0 -3
v -4 0 -4
v 4 0 -4
v -3 1 3
v 3 1 3
v -2 1 2
v 2 1 2
v -2 1 -2
v 2 1 -2
v -3 1 -3
v 3 1 -3
v -3 7 4
v 3 7 4
v -4 7 3
v -3 7 3
v 3 7 3
v 4 7 3
v -4 7 -3
v -3 7 -3
v 3 7 -3
v 4 7 -3
v -3 7 -4
v 3 7 -4
v -3 1 4
v 3 1 4
v -4 1 3
v -3 1 3
v 3 1 3
v 4 1 3
v -4 1 -3
v -3 1 -3
v 3 1 -3
v 4 1 -3
v -3 1 -4
v 3 1 -4
v -3 7 3
v 3 7 3
v -2 7 2
v 2 7 2
v -2 7 -2
v 2 7 -2
v -3 7 -3
v 3 7 -3
v -4 8 4
v 4 8 4
v -3 8 3
v 3 8 3
v -3 8 -3
v 3 8 -3
v -4 8 -4
v 4 8 -4

# faces
f 3/3/1 2/3/1 1/3/1
f 4/3/1 2/3/1 3/3/1
f 5/3/1 3/3/1 1/3/1
f 6/3/1 2/3/1 4/3/1
f 7/3/1 5/3/1 1/3/1
f 7/3/1 6/3/1 5/3/1
f 8/3/1 2/3/1 6/3/1
f 8/3/1 6/3/1 7/3/1
f 11/1/1 10/1/1 9/1/1
f 12/1/1 10/1/1 11/1/1
f 13/1/1 11/1/1 9/1/1
f 13/2/1 12/2/1 11/2/1
f 14/1/1 10/1/1 12/1/1
f 14/2/1 12/2/1 13/2/1
f 15/1/1 13/1/1 9/1/1
f 15/1/1 14/1/1 13/1/1
f 16/1/1 10/1/1 14/1/1
f 16/1/1 14/1/1 15/1/1
f 20/3/1 18/3/1 17/3/1
f 21/3/1 18/3/1 20/3/1
f 23/3/1 20/3/1 19/3/1
f 24/3/1 20/3/1 23/3/1
f 25/3/1 22/3/1 21/3/1
f 26/3/1 22/3/1 25/3/1
f 27/3/1 25/3/1 24/3/1
f 28/3/1 25/3/1 27/3/1
f 29/3/2 30/3/2 32/3/2
f 32/3/2 30/3/2 33/3/2
f 31/3/2 32/3/2 35/3/2
f 35/3/2 32/3/2 36/3/2
f 33/3/2 34/3/2 37/3/2
f 37/3/2 34/3/2 38/3/2
f 36/3/2 37/3/2 39/3/2
f 39/3/2 37/3/2 40/3/2
f 41/1/2 42/1/2 43/1/2
f 43/1/2 42/1/2 44/1/2
f 41/1/2 43/1/2 45/1/2
f 43/2/2 44/2/2 45/2/2
f 44/1/2 42/1/2 46/1/2
f 45/2/2 44/2/2 46/2/2
f 41/1/2 45/1/2 47/1/2
f 45/1/2 46/1/2 47/1/2
f 46/1/2 42/1/2 48/1/2
f 47/1/2 46/1/2 48/1/2
f 49/3/2 50/3/2 51/3/2
f 51/3/2 50/3/2 52/3/2
f 49/3/2 51/3/2 53/3/2
f 52/3/2 50/3/2 54/3/2
f 49/3/2 53/3/2 55/3/2
f 53/3/2 54/3/2 55/3/2
f 54/3/2 50/3/2 56/3/2
f 55/3/2 54/3/2 56/3/2
f 59/3/3 58/3/3 57/3/3
f 60/3/3 58/3/3 59/3/3
f 61/3/3 59/3/3 57/3/3
f 62/3/3 58/3/3 60/3/3
f 63/3/3 61/3/3 57/3/3
f 63/3/3 62/3/3 61/3/3
f 64/3/3 58/3/3 62/3/3
f 64/3/3 62/3/3 63/3/3
f 67/1/3 66/1/3 65/1/3
f 68/1/3 66/1/3 67/1/3
f 69/1/3 67/1/3 65/1/3
f 69/2/3 68/2/3 67/2/3
f 70/1/3 66/1/3 68/1/3
f 70/2/3 68/2/3 69/2/3
f 71/1/3 69/1/3 65/1/3
f 71/1/3 70/1/3 69/1/3
f 72/1/3 66/1/3 70/1/3
f 72/1/3 70/1/3 71/1/3
f 76/3/3 74/3/3 73/3/3
f 77/3/3 74/3/3 76/3/3
f 79/3/3 76/3/3 75/3/3
f 80/3/3 76/3/3 79/3/3
f 81/3/3 78/3/3 77/3/3
f 82/3/3 78/3/3 81/3/3
f 83/3/3 81/3/3 80/3/3
f 84/3/3 81/3/3 83/3/3
f 85/3/4 86/3/4 88/3/4
f 88/3/4 86/3/4 89/3/4
f 87/3/4 88/3/4 91/3/4
f 91/3/4 88/3/4 92/3/4
f 89/3/4 90/3/4 93/3/4
f 93/3/4 90/3/4 94/3/4
f 92/3/4 93/3/4 95/3/4
f 95/3/4 93/3/4 96/3/4
f 97/1/4 98/1/4 99/1/4
f 99/1/4 98/1/4 100/1/4
f 97/1/4 99/1/4 101/1/4
f 99/2/4 100/2/4 101/2/4
f 100/1/4 98/1/4 102/1/4
f 101/2/4 100/2/4 102/2/4
f 97/1/4 101/1/4 103/1/4
f 101/1/4 102/1/4 103/1/4
f 102/1/4 98/1/4 104/1/4
f 103/1/4 102/1/4 104/1/4
f 105/3/4 106/3/4 107/3/4
f 107/3/4 106/3/4 108/3/4
f 105/3/4 107/3/4 109/3/4
f 108/3/4 106/3/4 110/3/4
f 105/3/4 109/3/4 111/3/4
f 109/3/4 110/3/4 111/3/4
f 110/3/4 106/3/4 112/3/4
f 111/3/4 110/3/4 112/3/4
f 115/3/5 114/3/5 113/3/5
f 116/3/5 114/3/5 115/3/5
f 117/3/5 115/3/5 113/3/5
f 118/3/5 114/3/5 116/3/5
f 119/3/5 117/3/5 113/3/5
f 119/3/5 118/3/5 117/3/5
f 120/3/5 114/3/5 118/3/5
f 120/3/5 118/3/5 119/3/5
f 123/1/5 122/1/5 121/1/5
f 124/1/5 122/1/5 123/1/5
f 125/1/5 123/1/5 121/1/5
f 125/2/5 124/2/5 123/2/5
f 126/1/5 122/1/5 124/1/5
f 126/2/5 124/2/5 125/2/5
f 127/1/5 125/1/5 121/1/5
f 127/1/5 126/1/5 125/1/5
f 128/1/5 122/1/5 126/1/5
f 128/1/5 126/1/5 127/1/5
f 132/3/5 130/3/5 129/3/5
f 133/3/5 130/3/5 132/3/5
f 135/3/5 132/3/5 131/3/5
f 136/3/5 132/3/5 135/3/5
f 137/3/5 134/3/5 133/3/5
f 138/3/5 134/3/5 137/3/5
f 139/3/5 137/3/5 136/3/5
f 140/3/5 137/3/5 139/3/5
f 141/3/6 142/3/6 144/3/6
f 144/3/6 142/3/6 145/3/6
f 143/3/6 144/3/6 147/3/6
f 147/3/6 144/3/6 148/3/6
f 145/3/6 146/3/6 149/3/6
f 149/3/6 146/3/6 150/3/6
f 148/3/6 149/3/6 151/3/6
f 151/3/6 149/3/6 152/3/6
f 153/1/6 154/1/6 155/1/6
f 155/1/6 154/1/6 156/1/6
f 153/1/6 155/1/6 157/1/6
f 155/2/6 156/2/6 157/2/6
f 156/1/6 154/1/6 158/1/6
f 157/2/6 156/2/6 158/2/6
f 153/1/6 157/1/6 159/1/6
f 157/1/6 158/1/6 159/1/6
f 158/1/6 154/1/6 160/1/6
f 159/1/6 158/1/6 160/1/6
f 161/3/6 162/3/6 163/3/6
f 163/3/6 162/3/6 164/3/6
f 161/3/6 163/3/6 165/3/6
f 164/3/6 162/3/6 166/3/6
f 161/3/6 165/3/6 167/3/6
f 165/3/6 166/3/6 167/3/6
f 166/3/6 162/3/6 168/3/6
f 167/3/6 166/3/6 168/3/6
